<svg data-v-423bf9ae="" xmlns="http://www.w3.org/2000/svg" viewBox="0 0 149.04013961605585 60" class="font"><!----><!----><!----><g data-v-423bf9ae="" id="7e52d9b3-0c6f-4101-a1bb-ecb5c5f439be" fill="white" transform="matrix(4.467713832855225,0,0,4.467713832855225,-1.4310698509216309,-17.696334838867188)"><path d="M0.36 16.27L0.36 16.27L0.36 16.27Q0.45 16.07 0.65 15.87L0.65 15.87L0.65 15.87Q0.85 15.67 1.06 15.57L1.06 15.57L1.06 15.57Q1.26 15.48 1.34 15.57L1.34 15.57L1.34 15.57Q2.02 16.21 2.51 16.27L2.51 16.27L2.51 16.27Q2.62 15.82 2.69 15.05L2.69 15.05L3.42 7.46L3.42 7.46Q3.43 7.29 3.60 7.08L3.60 7.08L3.60 7.08Q3.77 6.86 3.95 6.73L3.95 6.73L3.95 6.73Q4.13 6.61 4.24 6.58L4.24 6.58L4.24 6.58Q4.49 6.51 4.48 6.75L4.48 6.75L3.75 14.32L3.75 14.32Q3.75 14.39 3.72 14.76L3.72 14.76L3.72 14.76Q3.70 15.13 3.68 15.24L3.68 15.24L3.68 15.24Q3.67 15.34 3.60 15.64L3.60 15.64L3.60 15.64Q3.54 15.93 3.46 16.09L3.46 16.09L3.46 16.09Q2.97 16.98 2.23 17.28L2.23 17.28L2.23 17.28Q1.92 17.39 1.71 17.39L1.71 17.39L1.71 17.39Q1.50 17.39 1.22 17.23L1.22 17.23L1.22 17.23Q0.87 17.04 0.36 16.55L0.36 16.55L0.36 16.55Q0.28 16.46 0.36 16.27ZM3.54 5.40L3.54 5.40Q3.56 5.25 3.72 5.03L3.72 5.03L3.72 5.03Q3.88 4.80 4.06 4.68L4.06 4.68L4.06 4.68Q4.24 4.55 4.37 4.52L4.37 4.52L4.37 4.52Q4.62 4.45 4.61 4.68L4.61 4.68L4.54 5.66L4.54 5.66Q4.52 5.81 4.36 6.03L4.36 6.03L4.36 6.03Q4.20 6.26 4.02 6.38L4.02 6.38L4.02 6.38Q3.84 6.51 3.71 6.54L3.71 6.54L3.71 6.54Q3.46 6.61 3.47 6.38L3.47 6.38L3.54 5.40ZM10.77 15.37L9.03 11.28L9.03 11.28Q8.20 11.54 7.60 11.54L7.60 11.54L7.60 11.54Q6.99 11.54 6.66 11.51L6.66 11.51L6.41 14.55L6.41 14.55Q6.40 14.70 6.23 14.92L6.23 14.92L6.23 14.92Q6.06 15.15 5.88 15.27L5.88 15.27L5.88 15.27Q5.70 15.40 5.59 15.43L5.59 15.43L5.59 15.43Q5.33 15.50 5.35 15.27L5.35 15.27L6.20 5.19L6.20 5.19Q6.22 5.04 6.38 4.80L6.38 4.80L6.38 4.80Q6.73 4.34 7.08 4.30L7.08 4.30L7.08 4.30Q7.91 3.96 8.79 3.96L8.79 3.96L8.79 3.96Q9.66 3.96 10.43 4.31L10.43 4.31L10.43 4.31Q11.44 4.77 11.94 5.59L11.94 5.59L11.94 5.59Q12.43 6.40 12.43 7.28L12.43 7.28L12.43 7.28Q12.43 8.95 10.88 10.28L10.88 10.28L10.88 10.28Q10.57 10.54 10.23 10.74L10.23 10.74L11.80 14.45L11.80 14.45Q11.84 14.56 11.73 14.78L11.73 14.78L11.73 14.78Q11.61 14.99 11.40 15.18L11.40 15.18L11.40 15.18Q11.19 15.37 11.00 15.43L11.00 15.43L11.00 15.43Q10.81 15.48 10.77 15.37L10.77 15.37ZM9.90 10.15L9.90 10.15L9.90 10.15Q11.37 9.56 11.37 8.05L11.37 8.05L11.37 8.05Q11.37 7.28 10.91 6.52L10.91 6.52L10.91 6.52Q10.46 5.77 9.63 5.40L9.63 5.40L9.63 5.40Q8.81 5.03 7.99 5.03L7.99 5.03L7.99 5.03Q7.59 5.03 7.21 5.11L7.21 5.11L6.78 10.32L6.78 10.32Q8.23 10.67 9.56 10.26L9.56 10.26L9.56 10.26Q9.76 10.14 9.90 10.15ZM19.11 14.56L19.11 14.56Q19.10 14.71 18.93 14.94L18.93 14.94L18.93 14.94Q18.76 15.16 18.58 15.28L18.58 15.28L18.58 15.28Q18.40 15.40 18.27 15.43L18.27 15.43L18.27 15.43Q18.02 15.48 18.05 15.26L18.05 15.26L18.14 14.35L18.14 14.35Q17.75 14.80 17.19 15.12L17.19 15.12L17.19 15.12Q16.63 15.44 16.04 15.44L16.04 15.44L16.04 15.44Q13.65 15.47 14 12.14L14 12.14L14.34 8.23L14.34 8.23Q14.35 8.08 14.52 7.85L14.52 7.85L14.52 7.85Q14.69 7.62 14.87 7.50L14.87 7.50L14.87 7.50Q15.05 7.38 15.16 7.35L15.16 7.35L15.16 7.35Q15.41 7.28 15.40 7.50L15.40 7.50L15.06 11.42L15.06 11.42Q14.74 14.39 16.80 14.38L16.80 14.38L16.80 14.38Q17.21 14.38 17.40 14.27L17.40 14.27L17.40 14.27Q17.89 13.99 18.31 12.73L18.31 12.73L18.31 12.73Q18.31 12.71 18.31 12.68L18.31 12.68L18.79 8.22L18.79 8.22Q18.80 8.05 18.97 7.83L18.97 7.83L18.97 7.83Q19.14 7.62 19.32 7.50L19.32 7.50L19.32 7.50Q19.50 7.38 19.63 7.35L19.63 7.35L19.63 7.35Q19.88 7.29 19.85 7.50L19.85 7.50L19.11 14.56ZM21.56 8.22L21.56 8.22Q21.57 8.06 21.74 7.84L21.74 7.84L21.74 7.84Q21.91 7.62 22.09 7.50L22.09 7.50L22.09 7.50Q22.27 7.38 22.40 7.35L22.40 7.35L22.40 7.35Q22.65 7.29 22.62 7.50L22.62 7.50L22.53 8.43L22.53 8.43Q22.92 7.98 23.48 7.66L23.48 7.66L23.48 7.66Q24.04 7.34 24.63 7.34L24.63 7.34L24.63 7.34Q27.02 7.31 26.67 10.63L26.67 10.63L26.33 14.55L26.33 14.55Q26.32 14.70 26.15 14.92L26.15 14.92L26.15 14.92Q25.98 15.15 25.80 15.27L25.80 15.27L25.80 15.27Q25.62 15.40 25.51 15.43L25.51 15.43L25.51 15.43Q25.26 15.50 25.27 15.27L25.27 15.27L25.61 11.35L25.61 11.35Q25.93 8.39 23.87 8.40L23.87 8.40L23.87 8.40Q23.46 8.40 23.27 8.51L23.27 8.51L23.27 8.51Q22.78 8.79 22.36 10.05L22.36 10.05L22.36 10.05Q22.36 10.07 22.36 10.09L22.36 10.09L21.88 14.56L21.88 14.56Q21.87 14.73 21.70 14.95L21.70 14.95L21.70 14.95Q21.53 15.16 21.35 15.28L21.35 15.28L21.35 15.28Q21.17 15.40 21.04 15.43L21.04 15.43L21.04 15.43Q20.79 15.48 20.82 15.26L20.82 15.26L21.56 8.22ZM33.59 9.47L33.59 9.47L33.59 9.47Q33.47 9.69 33.26 9.88L33.26 9.88L33.26 9.88Q33.04 10.07 32.86 10.11L32.86 10.11L32.86 10.11Q32.68 10.15 32.63 10.04L32.63 10.04L32.63 10.04Q32.40 9.39 31.87 8.94L31.87 8.94L31.87 8.94Q31.35 8.48 30.77 8.40L30.77 8.40L30.77 8.40Q30.20 8.32 29.88 8.50L29.88 8.50L29.88 8.50Q29.60 9.09 30.03 9.74L30.03 9.74L30.03 9.74Q30.41 10.32 31.54 10.77L31.54 10.77L31.54 10.77Q32.31 11.07 32.56 11.21L32.56 11.21L32.56 11.21Q33.68 11.90 33.66 12.98L33.66 12.98L33.66 12.98Q33.63 13.83 32.84 14.62L32.84 14.62L32.84 14.62Q31.42 16.03 29.61 15.15L29.61 15.15L29.61 15.15Q28.59 14.64 27.93 13.59L27.93 13.59L27.93 13.59Q27.87 13.50 27.98 13.29L27.98 13.29L27.98 13.29Q28.08 13.08 28.29 12.88L28.29 12.88L28.29 12.88Q28.50 12.68 28.70 12.61L28.70 12.61L28.70 12.61Q28.90 12.54 28.95 12.64L28.95 12.64L28.95 12.64Q29.71 13.83 30.88 14.25L30.88 14.25L30.88 14.25Q31.64 14.52 32.24 14.32L32.24 14.32L32.24 14.32Q32.44 14.25 32.48 14.20L32.48 14.20L32.48 14.20Q32.66 13.89 32.55 13.40L32.55 13.40L32.55 13.40Q32.35 12.50 31.00 11.96L31.00 11.96L31.00 11.96Q30.94 11.93 30.67 11.83L30.67 11.83L30.67 11.83Q29.92 11.54 29.67 11.34L29.67 11.34L29.67 11.34Q28.39 10.42 28.83 9.13L28.83 9.13L28.83 9.13Q28.99 8.61 29.39 8.20L29.39 8.20L29.39 8.20Q30.38 7.17 31.54 7.34L31.54 7.34L31.54 7.34Q32.27 7.43 32.84 7.93L32.84 7.93L32.84 7.93Q33.42 8.43 33.67 9.14L33.67 9.14L33.67 9.14Q33.71 9.25 33.59 9.47Z"></path></g><!----><!----></svg>