<svg data-v-423bf9ae="" xmlns="http://www.w3.org/2000/svg" viewBox="0 0 321 90" class="iconLeft"><!----><!----><!----><g data-v-423bf9ae="" id="5284600b-5fe6-411a-913e-17361498a27a" fill="white" transform="matrix(5.212080001831055,0,0,5.212080001831055,132.60494995117188,-13.6664400100708)"><path d="M2.23 7.48L2.23 7.48L2.23 7.48Q1.63 7.48 1.32 7.18L1.32 7.18L1.32 7.18Q1.01 6.89 1.01 6.47L1.01 6.47L1.01 6.47Q1.01 6.05 1.35 5.77L1.35 5.77L1.35 5.77Q1.69 5.50 2.25 5.50L2.25 5.50L2.25 5.50Q2.81 5.50 3.14 5.78L3.14 5.78L3.14 5.78Q3.47 6.06 3.47 6.47L3.47 6.47L3.47 6.47Q3.47 6.89 3.14 7.18L3.14 7.18L3.14 7.18Q2.82 7.48 2.23 7.48ZM0.33 17.01L-0.12 16.13L0.21 15.89L0.21 15.89Q0.61 15.58 0.78 15.35L0.78 15.35L0.78 15.35Q0.96 15.12 1.10 14.88L1.10 14.88L1.10 14.88Q1.24 14.64 1.33 14.38L1.33 14.38L1.33 14.38Q1.52 13.79 1.52 13.06L1.52 13.06L1.52 9.83L0.51 9.26L0.68 8.36L2.88 8.21L3.17 8.48L3.17 13.37L3.17 13.37Q3.17 15.47 1.37 16.53L1.37 16.53L1.37 16.53Q1.05 16.71 0.66 16.89L0.66 16.89L0.33 17.01ZM11.15 6.73L11.15 6.73L10.63 6.75L10.63 9.97L11.83 9.97L11.83 9.97Q12.91 9.50 12.91 8.42L12.91 8.42L12.91 8.42Q12.91 7.69 12.43 7.21L12.43 7.21L12.43 7.21Q11.96 6.73 11.15 6.73ZM11.68 14.40L7.38 14.40L7.49 13.67L8.70 13.24L8.70 7.23L7.46 6.97L7.54 6.16L7.54 6.16Q9.64 5.82 11.37 5.82L11.37 5.82L11.37 5.82Q13.10 5.82 14.05 6.34L14.05 6.34L14.05 6.34Q14.99 6.86 14.99 8.07L14.99 8.07L14.99 8.07Q14.99 8.84 14.43 9.50L14.43 9.50L14.43 9.50Q13.86 10.15 13.07 10.43L13.07 10.43L14.10 11.84L14.10 11.84Q15.02 13.09 15.59 13.41L15.59 13.41L15.59 13.41Q15.86 13.56 16.19 13.64L16.19 13.64L16.44 13.71L16.28 14.40L16.28 14.40Q15.78 14.56 15.13 14.56L15.13 14.56L15.13 14.56Q14.16 14.56 13.50 14.04L13.50 14.04L13.50 14.04Q12.84 13.52 12.33 12.56L12.33 12.56L11.48 10.99L10.63 10.99L10.63 13.18L11.76 13.58L11.68 14.40ZM18.98 11.71L18.98 11.71Q18.98 12.41 19.19 12.70L19.19 12.70L19.19 12.70Q19.39 13.00 19.87 13.00L19.87 13.00L19.87 13.00Q20.36 13.00 20.82 12.56L20.82 12.56L20.82 9.86L19.87 9.46L20.02 8.44L22.25 8.20L22.50 8.46L22.50 12.39L22.50 12.39Q22.50 12.88 22.68 13.07L22.68 13.07L22.68 13.07Q22.86 13.26 23.34 13.40L23.34 13.40L23.59 13.47L23.48 14.33L23.48 14.33Q22.76 14.59 22.17 14.59L22.17 14.59L22.17 14.59Q21.57 14.59 21.26 14.33L21.26 14.33L21.26 14.33Q20.95 14.08 20.95 13.59L20.95 13.59L20.95 13.51L20.86 13.49L20.86 13.49Q20.53 14.02 20.03 14.30L20.03 14.30L20.03 14.30Q19.52 14.58 18.96 14.58L18.96 14.58L18.96 14.58Q18.08 14.58 17.68 14.11L17.68 14.11L17.68 14.11Q17.28 13.64 17.28 12.57L17.28 12.57L17.28 9.82L16.39 9.27L16.55 8.37L18.71 8.22L18.98 8.49L18.98 11.71ZM27.31 14.40L23.77 14.40L23.86 13.61L24.86 13.22L24.86 9.75L23.85 9.29L23.98 8.46L26.38 8.22L26.56 8.42L26.43 9.21L26.52 9.23L26.52 9.23Q27.50 8.15 28.53 8.15L28.53 8.15L28.53 8.15Q29.32 8.15 29.76 8.64L29.76 8.64L29.76 8.64Q30.19 9.13 30.19 10.10L30.19 10.10L30.19 13.22L31.19 13.56L31.08 14.40L28.05 14.40L28.09 13.61L28.56 13.22L28.56 10.96L28.56 10.96Q28.56 9.73 27.64 9.73L27.64 9.73L27.64 9.73Q27.00 9.73 26.53 10.20L26.53 10.20L26.53 13.22L27.46 13.56L27.31 14.40ZM33.67 14.64L33.67 14.64L33.67 14.64Q32.69 14.64 32.05 14.26L32.05 14.26L32.05 14.26Q31.40 13.89 31.40 13.41L31.40 13.41L31.40 13.41Q31.40 12.92 31.70 12.65L31.70 12.65L31.70 12.65Q31.99 12.39 32.51 12.35L32.51 12.35L32.51 12.35Q32.71 13.04 33.04 13.40L33.04 13.40L33.04 13.40Q33.38 13.75 33.78 13.75L33.78 13.75L33.78 13.75Q34.61 13.75 34.61 13.19L34.61 13.19L34.61 13.19Q34.61 12.78 33.83 12.41L33.83 12.41L33.83 12.41Q33.03 12.03 32.38 11.55L32.38 11.55L32.38 11.55Q32.05 11.31 31.82 10.93L31.82 10.93L31.82 10.93Q31.60 10.55 31.60 10.17L31.60 10.17L31.60 10.17Q31.60 9.78 31.74 9.45L31.74 9.45L31.74 9.45Q31.87 9.12 32.14 8.80L32.14 8.80L32.14 8.80Q32.40 8.48 32.88 8.28L32.88 8.28L32.88 8.28Q33.37 8.08 34.11 8.08L34.11 8.08L34.11 8.08Q34.86 8.08 35.41 8.38L35.41 8.38L35.41 8.38Q35.95 8.68 35.95 9.18L35.95 9.18L35.95 9.18Q35.95 9.67 35.63 9.96L35.63 9.96L35.63 9.96Q35.31 10.25 34.82 10.29L34.82 10.29L34.69 9.86L34.69 9.86Q34.43 8.87 33.65 8.87L33.65 8.87L33.65 8.87Q33.35 8.87 33.16 9.06L33.16 9.06L33.16 9.06Q32.98 9.24 32.98 9.50L32.98 9.50L32.98 9.50Q32.98 9.76 33.22 9.98L33.22 9.98L33.22 9.98Q33.45 10.21 33.80 10.38L33.80 10.38L33.80 10.38Q34.15 10.55 34.55 10.78L34.55 10.78L34.55 10.78Q34.95 11.01 35.30 11.25L35.30 11.25L35.30 11.25Q35.65 11.49 35.88 11.87L35.88 11.87L35.88 11.87Q36.11 12.26 36.11 12.71L36.11 12.71L36.11 12.71Q36.11 13.58 35.38 14.11L35.38 14.11L35.38 14.11Q34.64 14.64 33.67 14.64Z"></path></g><!----><g data-v-423bf9ae="" id="e92e3482-9b01-469c-879e-efc90c2c7516" transform="matrix(1.24729323387146,0,0,1.24729323387146,-6.252346515655518,-16.442787170410156)" stroke="none" fill="white"><path d="M93.568 37.303c2.698 7.938 1.222 15.139-4.018 21.615-.237.293-.457.883-.977.546-.136-.088.003-.672.086-1.011.385-1.591.947-3.155 1.169-4.766 1.072-7.764-.968-18.703-9.954-23.478-8.843-4.699-18.244-5.67-27.784-2.363-16.456 5.706-20.101 31.24-10.671 42.292C47.086 76.78 54.087 81.299 62.09 84.47c.556.22 1.199.313 1.427 1-.537.015-1.098.139-1.608.03-6.352-1.364-12.481-3.37-18.061-6.764-6.608-4.019-11.66-9.35-13.666-17.062-1.647-6.332-1.269-12.699.242-18.962 2.676-11.086 7.794-19.281 17.901-25.118 1.566-.904 6.568-2.642 8.951-3.133 15.489-2.92 27.698 6.905 28.771 8.951.156.297-7.547-4.795-11.062-5.498-7.607-1.599-12.084-1.4-17.181-.369-11.511 1.692-19.709 15.649-19.709 15.649s16.797-15.164 27.591-14.71c13.137-.243 23.817 6.86 27.882 18.819z"></path><path d="M89.391 81.332c-3.52-1.419-7.173-2.262-10.956-1.731-6.851.961-13.456.393-19.767-2.586-.432-.204-1.009-.422-1.231-.007-.23.432.333.757.7 1.009 3.942 2.711 8.063 4.984 12.964 5.407 1.817.157 3.629.373 5.441.587.415.049 1.082-.023 1.062.552-.02.584-.688.377-1.078.427-15 1.951-32.87-9.871-36.707-24.498-2.377-9.06-1.059-17.571 5.845-24.315 6.729-6.574 15.072-8.341 24.079-5.931 15.154 4.055 22.338 23.523 11.056 34.053-.37.345-2.652 2.372-5.113 3.588-7.558 3.735-17.007.122-20.007-7.425-.122-.307-.043-.795-.54-.73-.079.01-.08.66-.109 1.015-.689 8.444 4.833 14.87 13.713 16.059 3.543.474 7.105.378 10.655.589 3.733.222 7.476.637 10.229 3.682-.079.087-.157.171-.236.255zM47.909 67.139c.168.286.601.717.752.66.636-.241.208-.721.073-1.079-2.078-5.507-1.356-10.992.4-16.354 2.666-8.141 10.792-12.311 18.469-9.699 3.381 1.151 5.438 3.916 5.307 7.156-.018.443.056 1.048-.417 1.211-.597.206-.605-.511-.804-.827-1.737-2.755-4.126-3.983-7.408-3.408-3.478.609-5.427 2.686-6.202 6.065-1.503 6.547 4.066 12.519 11.191 11.959 5.965-.469 9.528-3.221 11.298-8.725 1.803-5.606.348-11.43-4.022-14.9-7.217-5.73-18.397-7.58-26.148 3.037-3.15 4.315-5.208 10.375-5.207 15.578-.074 3.394 1.027 6.449 2.718 9.326z"></path><path d="M19.12 54.094c.496 7.534 1.619 14.87 6.465 21.074.201.258.608.577.303.889-.411.422-.834-.032-1.219-.216-3.421-1.63-6.95-2.73-10.813-2.363-3.351.318-6.068 1.82-8.278 4.306-.381.429-.692 1.078-.235 1.446.366.294.622-.436.921-.707 3.929-3.557 8.163-4.035 13.654-1.258a83.859 83.859 0 0 0 17.096 6.432C41.17 84.762 45.42 85.259 49.629 86c.793.14 1.695.16 1.852-.597.138-.662-.905-.626-1.423-.797-5.89-1.944-11.2-4.851-15.6-9.285-5.386-5.428-8.15-12.034-8.468-19.617-.596-14.216 3.837-26.368 14.989-35.674.214-.178.791-.172.497-.655-.087-.143-.55-.18-.774-.094-.928.357-1.9.671-2.732 1.196-10.884 6.875-16.778 16.914-18.573 29.511-.192 1.354-.189 2.733-.277 4.106zM85.132 63.666l-.099-.377-.262.175.404.163-.043.039zM68.836 60.339c3.14-.394 6.684-1.388 8.584-5.186 1.969-3.936 1.571-7.742-.944-11.324-.395-.563-.837-1.544-1.531-1.262-.496.201.069 1.136.243 1.734.775 2.666 1.118 5.345.082 8.025-1.42 3.67-5.262 5.702-8.801 4.609-1.342-.415-2.564-1.119-2.698-2.728-.126-1.516.725-2.412 2.163-2.648 1.378-.227.626-.689.148-1.045-1.959-1.461-4.507-.195-5.049 2.486-.868 4.291 2.21 7.479 7.803 7.339z"></path></g><!----></svg>