<svg data-v-423bf9ae="" xmlns="http://www.w3.org/2000/svg" viewBox="0 0 188.83610451306413 60" class="font"><!----><!----><!----><g data-v-423bf9ae="" id="1dac501c-49aa-4d7b-a753-0a59f505b0b2" fill="black" transform="matrix(5.212080001831055,0,0,5.212080001831055,0.6311521530151367,-28.666439056396484)"><path d="M2.23 7.48L2.23 7.48L2.23 7.48Q1.63 7.48 1.32 7.18L1.32 7.18L1.32 7.18Q1.01 6.89 1.01 6.47L1.01 6.47L1.01 6.47Q1.01 6.05 1.35 5.77L1.35 5.77L1.35 5.77Q1.69 5.50 2.25 5.50L2.25 5.50L2.25 5.50Q2.81 5.50 3.14 5.78L3.14 5.78L3.14 5.78Q3.47 6.06 3.47 6.47L3.47 6.47L3.47 6.47Q3.47 6.89 3.14 7.18L3.14 7.18L3.14 7.18Q2.82 7.48 2.23 7.48ZM0.33 17.01L-0.12 16.13L0.21 15.89L0.21 15.89Q0.61 15.58 0.78 15.35L0.78 15.35L0.78 15.35Q0.96 15.12 1.10 14.88L1.10 14.88L1.10 14.88Q1.24 14.64 1.33 14.38L1.33 14.38L1.33 14.38Q1.52 13.79 1.52 13.06L1.52 13.06L1.52 9.83L0.51 9.26L0.68 8.36L2.88 8.21L3.17 8.48L3.17 13.37L3.17 13.37Q3.17 15.47 1.37 16.53L1.37 16.53L1.37 16.53Q1.05 16.71 0.66 16.89L0.66 16.89L0.33 17.01ZM11.15 6.73L11.15 6.73L10.63 6.75L10.63 9.97L11.83 9.97L11.83 9.97Q12.91 9.50 12.91 8.42L12.91 8.42L12.91 8.42Q12.91 7.69 12.43 7.21L12.43 7.21L12.43 7.21Q11.96 6.73 11.15 6.73ZM11.68 14.40L7.38 14.40L7.49 13.67L8.70 13.24L8.70 7.23L7.46 6.97L7.54 6.16L7.54 6.16Q9.64 5.82 11.37 5.82L11.37 5.82L11.37 5.82Q13.10 5.82 14.05 6.34L14.05 6.34L14.05 6.34Q14.99 6.86 14.99 8.07L14.99 8.07L14.99 8.07Q14.99 8.84 14.43 9.50L14.43 9.50L14.43 9.50Q13.86 10.15 13.07 10.43L13.07 10.43L14.10 11.84L14.10 11.84Q15.02 13.09 15.59 13.41L15.59 13.41L15.59 13.41Q15.86 13.56 16.19 13.64L16.19 13.64L16.44 13.71L16.28 14.40L16.28 14.40Q15.78 14.56 15.13 14.56L15.13 14.56L15.13 14.56Q14.16 14.56 13.50 14.04L13.50 14.04L13.50 14.04Q12.84 13.52 12.33 12.56L12.33 12.56L11.48 10.99L10.63 10.99L10.63 13.18L11.76 13.58L11.68 14.40ZM18.98 11.71L18.98 11.71Q18.98 12.41 19.19 12.70L19.19 12.70L19.19 12.70Q19.39 13.00 19.87 13.00L19.87 13.00L19.87 13.00Q20.36 13.00 20.82 12.56L20.82 12.56L20.82 9.86L19.87 9.46L20.02 8.44L22.25 8.20L22.50 8.46L22.50 12.39L22.50 12.39Q22.50 12.88 22.68 13.07L22.68 13.07L22.68 13.07Q22.86 13.26 23.34 13.40L23.34 13.40L23.59 13.47L23.48 14.33L23.48 14.33Q22.76 14.59 22.17 14.59L22.17 14.59L22.17 14.59Q21.57 14.59 21.26 14.33L21.26 14.33L21.26 14.33Q20.95 14.08 20.95 13.59L20.95 13.59L20.95 13.51L20.86 13.49L20.86 13.49Q20.53 14.02 20.03 14.30L20.03 14.30L20.03 14.30Q19.52 14.58 18.96 14.58L18.96 14.58L18.96 14.58Q18.08 14.58 17.68 14.11L17.68 14.11L17.68 14.11Q17.28 13.64 17.28 12.57L17.28 12.57L17.28 9.82L16.39 9.27L16.55 8.37L18.71 8.22L18.98 8.49L18.98 11.71ZM27.31 14.40L23.77 14.40L23.86 13.61L24.86 13.22L24.86 9.75L23.85 9.29L23.98 8.46L26.38 8.22L26.56 8.42L26.43 9.21L26.52 9.23L26.52 9.23Q27.50 8.15 28.53 8.15L28.53 8.15L28.53 8.15Q29.32 8.15 29.76 8.64L29.76 8.64L29.76 8.64Q30.19 9.13 30.19 10.10L30.19 10.10L30.19 13.22L31.19 13.56L31.08 14.40L28.05 14.40L28.09 13.61L28.56 13.22L28.56 10.96L28.56 10.96Q28.56 9.73 27.64 9.73L27.64 9.73L27.64 9.73Q27.00 9.73 26.53 10.20L26.53 10.20L26.53 13.22L27.46 13.56L27.31 14.40ZM33.67 14.64L33.67 14.64L33.67 14.64Q32.69 14.64 32.05 14.26L32.05 14.26L32.05 14.26Q31.40 13.89 31.40 13.41L31.40 13.41L31.40 13.41Q31.40 12.92 31.70 12.65L31.70 12.65L31.70 12.65Q31.99 12.39 32.51 12.35L32.51 12.35L32.51 12.35Q32.71 13.04 33.04 13.40L33.04 13.40L33.04 13.40Q33.38 13.75 33.78 13.75L33.78 13.75L33.78 13.75Q34.61 13.75 34.61 13.19L34.61 13.19L34.61 13.19Q34.61 12.78 33.83 12.41L33.83 12.41L33.83 12.41Q33.03 12.03 32.38 11.55L32.38 11.55L32.38 11.55Q32.05 11.31 31.82 10.93L31.82 10.93L31.82 10.93Q31.60 10.55 31.60 10.17L31.60 10.17L31.60 10.17Q31.60 9.78 31.74 9.45L31.74 9.45L31.74 9.45Q31.87 9.12 32.14 8.80L32.14 8.80L32.14 8.80Q32.40 8.48 32.88 8.28L32.88 8.28L32.88 8.28Q33.37 8.08 34.11 8.08L34.11 8.08L34.11 8.08Q34.86 8.08 35.41 8.38L35.41 8.38L35.41 8.38Q35.95 8.68 35.95 9.18L35.95 9.18L35.95 9.18Q35.95 9.67 35.63 9.96L35.63 9.96L35.63 9.96Q35.31 10.25 34.82 10.29L34.82 10.29L34.69 9.86L34.69 9.86Q34.43 8.87 33.65 8.87L33.65 8.87L33.65 8.87Q33.35 8.87 33.16 9.06L33.16 9.06L33.16 9.06Q32.98 9.24 32.98 9.50L32.98 9.50L32.98 9.50Q32.98 9.76 33.22 9.98L33.22 9.98L33.22 9.98Q33.45 10.21 33.80 10.38L33.80 10.38L33.80 10.38Q34.15 10.55 34.55 10.78L34.55 10.78L34.55 10.78Q34.95 11.01 35.30 11.25L35.30 11.25L35.30 11.25Q35.65 11.49 35.88 11.87L35.88 11.87L35.88 11.87Q36.11 12.26 36.11 12.71L36.11 12.71L36.11 12.71Q36.11 13.58 35.38 14.11L35.38 14.11L35.38 14.11Q34.64 14.64 33.67 14.64Z"></path></g><!----><!----></svg>